# xmcd
#
# Track frame offsets:
#	150
#	17164
#	34307
#	48532
#	72018
#	85317
#	106245
#	126865
#	150434
#	173291
#	195036
#
# Disc length: 2930 seconds
#
# Revision: 1
# Processed by: cddbd v1.5.2PL0 Copyright (c) Steve Scherf et al.
# Submitted via: EZCDAudioConverter 6.0.2.1
#
DISCID=7c0b700b
DTITLE=Mary Chapin Carpenter - The Things That We Are Made Of
DYEAR=2016
DGENRE=Country
TTITLE0=Something Tamed Something Wild
TTITLE1=The Middle Ages
TTITLE2=What Does It Mean to Travel
TTITLE3=Livingston
TTITLE4=Map of My Heart
TTITLE5=Oh Rosetta
TTITLE6=Deep Deep Down Heart
TTITLE7=Hand on My Back
TTITLE8=The Blue Distance
TTITLE9=Note on a Windshield
TTITLE10=The Things That We Are Made Of
EXTD=
EXTT0=
EXTT1=
EXTT2=
EXTT3=
EXTT4=
EXTT5=
EXTT6=
EXTT7=
EXTT8=
EXTT9=
EXTT10=
PLAYORDER=
